HIERARCHY
ROOT Hips
{
  OFFSET 0 0 0
  CHANNELS 6 Xposition Yposition Zposition Zrotation Yrotation Xrotation
  JOINT LeftThigh
  {
    OFFSET 8.409438 0 -5.917753
    CHANNELS 3 Zrotation Yrotation Xrotation
    JOINT LeftLeg
    {
      OFFSET 0 0 -42.358652
      CHANNELS 3 Zrotation Yrotation Xrotation
      JOINT LeftFoot
      {
        OFFSET 0 0 -39.357303
        CHANNELS 3 Zrotation Yrotation Xrotation
      }
    }
  }
  JOINT RightThigh
  {
    OFFSET -8.409438 0 -5.917753
    CHANNELS 3 Zrotation Yrotation Xrotation
    JOINT RightLeg
    {
      OFFSET 0 0 -42.358652
      CHANNELS 3 Zrotation Yrotation Xrotation
      JOINT RightFoot
      {
        OFFSET 0 0 -39.357303
        CHANNELS 3 Zrotation Yrotation Xrotation
      }
    }
  }
  JOINT SpineLow
  {
    OFFSET 0 0 4.719101
    CHANNELS 3 Zrotation Yrotation Xrotation
    JOINT SpineMid
    {
      OFFSET 0 0 12.899191
      CHANNELS 3 Zrotation Yrotation Xrotation
      JOINT Chest
      {
        OFFSET 0 0 12.899191
        CHANNELS 3 Zrotation Yrotation Xrotation
        JOINT LeftShoulder
        {
          OFFSET 7.550562 1.41573 9.438202
          CHANNELS 3 Zrotation Yrotation Xrotation
          JOINT LeftArm
          {
            OFFSET 9.155056 0 4.247191
            CHANNELS 3 Zrotation Yrotation Xrotation
            JOINT LeftForearm
            {
              OFFSET 0 0 25.771955
              CHANNELS 3 Zrotation Yrotation Xrotation
              JOINT LeftHand
              {
                OFFSET 0 0 25.197169
                CHANNELS 3 Zrotation Yrotation Xrotation
              }
            }
          }
        }
        JOINT RightShoulder
        {
          OFFSET -7.550562 1.41573 9.438202
          CHANNELS 3 Zrotation Yrotation Xrotation
          JOINT RightArm
          {
            OFFSET -9.155056 0 4.247191
            CHANNELS 3 Zrotation Yrotation Xrotation
            JOINT RightForearm
            {
              OFFSET 0 0 -25.771955
              CHANNELS 3 Zrotation Yrotation Xrotation
              JOINT RightHand
              {
                OFFSET 0 0 -25.197169
                CHANNELS 3 Zrotation Yrotation Xrotation
              }
            }
          }
        }
        JOINT Neck
        {
          OFFSET 0 0 15.101124
          CHANNELS 3 Zrotation Yrotation Xrotation
          JOINT Head
          {
            OFFSET 0 0 11.325843
            CHANNELS 3 Zrotation Yrotation Xrotation
            End Site
            {
              OFFSET 0 0 14.157303
            }
          }
        }
      }
    }
  }
}
MOTION
Frames: 14
Frame Time: 0.01
0.0  101.685394  0.0  0.255579  -19.204235  -103.344714  24.004727  -17.970026  6.849518  3.283805  1.540448  30.535683  11.935387  5.864106  6.211707  -7.036613  13.191131  -5.79519  9.725228  -0.302065  21.212022  11.289831  3.782027  -0.759391  1.557748  -0.643436  1.882448  4.205945  -1.877902  5.102843  4.205945  -1.877902  5.102843  -8.884669  9.235064  19.68046  -79.171678  89.843392  -17.536712  -40.69498  33.334247  102.055267  76.212357  40.64898  -16.109406  16.087745  -22.218505  16.542067  111.123861  38.630298  32.577038  -14.418425  9.543519  -101.558025  89.833192  13.314657  32.605163  11.012976  -0.767211  -0.986279  8.258397  -0.593414  -0.72615  
0.0  101.685394  0.0  -0.037598  -21.624571  -103.111018  25.261105  -17.849314  6.900734  3.798884  0.926429  29.817863  12.297469  5.605887  6.328784  -6.282634  12.451785  -4.947415  10.164959  0.166625  18.824247  11.978366  3.167999  -0.740331  0.972057  -0.664935  2.325018  2.59096  -1.908673  6.328907  2.59096  -1.908673  6.328907  -6.555618  7.07683  15.012826  -13.951415  85.798705  47.224611  -42.505029  31.130182  101.568825  84.437966  40.578316  -14.025963  18.197068  -20.723292  14.923752  108.605791  35.295131  32.988789  -13.46711  12.171013  -102.214589  89.571776  16.976622  35.131153  13.083959  -0.622596  -1.909454  9.811043  -0.508118  -1.419516  
0.0  101.685394  0.0  -0.470997  -23.44236  -102.747002  26.748205  -18.166672  6.798845  4.553445  0.449748  29.15901  11.922621  5.346776  6.282081  -5.995286  11.709338  -4.154612  10.314252  0.450284  16.524859  12.65917  2.78443  -0.651199  0.880084  -0.453035  2.84871  2.348763  -1.339732  7.769965  2.348763  -1.339732  7.769965  -7.108698  2.836092  9.986011  -21.629633  81.710798  37.86878  -43.321348  25.669653  100.699049  93.089325  38.992866  -11.579469  17.35601  -20.922929  12.058503  105.224694  32.87108  33.794392  -12.84042  14.569455  -101.439323  89.073716  19.892905  37.993239  13.10517  -1.340945  -3.722814  9.820699  -1.086196  -2.764726  
0.0  101.685394  0.0  -0.981165  -24.67435  -102.410957  28.503638  -18.940528  6.63399  5.061648  0.253115  28.572623  11.019597  5.165195  6.121365  -5.751745  11.068229  -3.210506  9.9253  0.511645  14.394377  12.953366  2.5023  -0.54225  0.8407  -0.349569  2.491912  2.259342  -1.04077  6.798808  2.259342  -1.04077  6.798808  -8.014732  -0.492809  10.971598  -23.912202  77.336208  33.596699  -44.358951  15.229237  98.797786  99.643076  36.79487  -11.571771  13.989032  -22.757142  14.972229  101.520074  29.905826  35.849844  -13.0897  17.404623  -100.151823  87.321686  21.17276  43.229287  12.446533  -2.845682  -2.418561  9.321891  -2.184629  -1.756403  
0.0  101.685394  0.0  -1.647973  -25.373771  -102.179167  30.347833  -20.149168  6.404297  4.71624  0.358005  28.078476  10.159914  5.260128  5.927133  -5.460511  10.348143  -2.034265  8.96815  0.481146  12.589145  12.704581  2.306517  -0.472196  0.331446  -0.397772  2.115535  0.870476  -1.11527  5.777531  0.870476  -1.11527  5.777532  -6.604392  -2.515388  12.568887  -24.694822  73.169451  30.488215  -44.305941  0.216058  95.816782  103.367404  34.572654  -15.358886  13.187224  -23.476347  18.86248  96.014475  27.430225  37.681708  -14.478884  19.492944  -98.373418  82.036906  25.065242  46.704264  13.255977  -3.626585  -0.724784  9.934372  -2.737186  -0.464889  
0.0  101.685394  0.0  -2.408491  -25.330634  -102.008174  31.84984  -21.56319  6.041552  3.67444  1.045782  27.664108  9.526919  5.148282  5.653794  -5.804345  9.658822  -0.888037  7.728961  0.498934  11.180606  12.64368  2.211664  -0.453045  -0.415775  -0.629179  2.073106  -1.18967  -1.682657  5.678388  -1.18967  -1.682657  5.678388  -4.265984  -3.334697  12.498212  -24.749371  68.843622  27.800769  -42.303656  -16.918639  90.793496  105.193644  31.826647  -22.707663  13.808792  -22.188506  21.585285  90.655975  26.290855  39.461715  -14.370708  17.280011  -96.964118  78.467362  31.486861  49.122497  14.757269  -3.259368  0.042406  11.065188  -2.445192  0.110678  
0.0  101.685394  0.0  -3.256681  -24.492948  -101.950464  32.637022  -22.973815  5.626828  1.99973  1.897112  27.388456  9.459527  5.217964  5.567444  -6.890668  8.995685  0.197606  6.299269  0.734212  10.062914  13.360465  2.200791  -0.448465  -1.161446  -0.932295  2.038351  -3.252047  -2.4477  5.617314  -3.252047  -2.4477  5.617314  -2.485825  -3.472331  12.136356  -22.77556  64.898363  27.061129  -36.019264  -33.296139  83.001591  107.138511  28.694646  -31.39556  14.398835  -20.389688  24.074296  85.727593  25.297229  40.739663  -12.18534  15.792837  -97.143731  77.126339  37.695444  53.508761  15.965039  -2.705908  0.833167  11.975264  -2.009294  0.696084  
0.0  101.685394  0.0  -3.913695  -23.110671  -101.715032  32.787483  -23.945895  4.969073  0.289254  2.787987  27.319666  9.497816  5.283493  5.446492  -8.311305  8.594992  0.801536  5.029502  1.124403  9.241013  14.521275  2.031707  -0.586809  -1.818361  -1.108851  1.833118  -5.05407  -2.88914  5.093781  -5.05407  -2.88914  5.093781  -1.615277  -3.852159  11.410608  -20.111583  61.491747  27.154274  -23.103597  -45.028678  71.436257  109.093549  24.910338  -35.925678  14.564053  -19.012062  26.39038  80.354649  24.194655  41.155279  -13.207996  11.300557  -96.051077  77.321872  44.370888  51.414873  16.748601  -2.738794  1.848667  12.567471  -2.005231  1.462678  
0.0  101.685394  0.0  -4.26067  -21.762916  -101.442163  32.660936  -24.341113  4.29518  -0.940326  3.399484  27.42744  9.630056  5.325407  5.40181  -9.24555  8.588437  1.062839  4.52976  1.352631  8.73694  14.957635  1.669128  -0.759626  -2.330071  -1.366142  1.695582  -6.46706  -3.564722  4.765685  -6.46706  -3.564722  4.765685  -1.108664  -3.529861  9.772609  -18.102178  58.643207  27.870569  -6.566293  -49.95074  58.428831  107.523039  22.46248  -34.302921  14.52121  -16.39731  27.659253  75.157973  22.910197  41.063358  -13.858201  9.983215  -96.993434  76.20973  46.746052  49.810625  17.189729  -2.269929  2.588724  12.900489  -1.631178  2.007077  
0.0  101.685394  0.0  -4.364955  -20.477329  -101.126018  32.010529  -24.166243  3.718435  -1.212052  3.613857  27.735199  9.529117  5.340482  5.391964  -9.579884  8.788485  1.009002  4.976424  1.317395  8.558665  14.084033  1.371304  -0.890466  -2.606331  -1.552876  1.592064  -7.231358  -4.065195  4.518613  -7.231358  -4.065195  4.518614  -1.221013  -3.965946  9.495855  -18.274394  54.969776  26.464704  1.867013  -46.440292  52.367899  100.263624  21.188374  -33.616116  13.356305  -13.952394  28.788225  71.054357  21.841402  40.703806  -14.861109  11.640391  -97.163457  74.23085  47.842803  48.93434  17.094374  -1.757282  2.863167  12.828332  -1.239029  2.198435  
0.0  101.685394  0.0  -4.338337  -19.166978  -100.877309  30.933944  -23.715611  3.365846  -0.7165  3.457828  28.149896  9.068191  5.262701  5.282157  -9.739145  9.010511  0.824857  5.695035  1.180117  8.59881  12.817407  1.296977  -0.914905  -2.820897  -1.679995  1.720763  -7.836449  -4.381423  4.898846  -7.836448  -4.381423  4.898846  -1.398326  -4.963288  8.768311  -17.8596  50.992736  23.875144  -2.378515  -35.134023  56.221698  98.686049  19.678133  -35.830474  12.418408  -11.919706  28.204356  68.045262  20.492138  40.367514  -16.388293  14.881303  -97.271696  71.268816  48.529205  47.592536  17.145888  -0.891107  2.078493  12.86236  -0.610571  1.585333  
0.0  101.685394  0.0  -4.297916  -18.158154  -100.566581  29.975001  -23.148514  3.046777  0.183453  3.043298  28.592706  8.362794  5.191365  5.109713  -9.628393  9.170625  0.561016  6.301724  1.035015  8.732323  11.55437  1.309784  -0.924349  -3.091785  -1.755994  1.884624  -8.59475  -4.546426  5.374157  -8.594751  -4.546427  5.374158  -0.692231  -6.683529  8.042591  -15.523403  49.397628  23.237837  -8.571368  -28.481541  58.03105  107.55378  16.814707  -33.967358  12.267551  -10.588112  27.24989  66.056526  18.773424  40.008864  -17.123879  17.027084  -97.949435  69.433931  49.321981  46.653261  17.809394  0.07307  1.054396  13.356965  0.08563  0.789462  
0.0  101.685394  0.0  -4.282278  -17.573534  -100.252148  29.420625  -22.702686  2.715584  0.766694  2.740694  28.82166  7.87999  5.132177  4.981405  -9.265366  9.218185  0.299653  6.563375  0.991174  8.870381  10.659927  1.365133  -0.893043  -3.398449  -1.833924  1.906579  -9.442402  -4.729877  5.466007  -9.442402  -4.729877  5.466007  1.294626  -8.037856  8.869203  -13.889757  47.906114  22.432644  -9.891532  -28.057401  57.141612  114.298391  14.254232  -32.533573  12.6332  -9.616565  27.451761  64.871916  17.015606  39.437555  -17.01771  17.603878  -98.587626  69.084003  50.216305  46.010888  19.003933  1.023437  0.70871  14.251408  0.790536  0.500247  
0.0  101.685394  0.0  -4.199648  -17.426315  -99.982514  29.452709  -22.358652  2.486735  0.956278  2.614633  28.869265  7.840914  5.093548  4.941683  -8.546958  9.222169  0.011522  6.727512  0.795839  9.256348  9.767561  1.666601  -0.964717  -3.528426  -1.940828  1.907695  -9.808456  -5.009809  5.494711  -9.808455  -5.009809  5.49471  2.922699  -8.404152  9.579982  -12.910168  45.627717  21.409179  -7.012953  -29.668158  54.536914  111.156013  13.616317  -33.240098  12.450647  -8.676424  27.710986  64.565344  15.052767  38.755582  -17.210194  17.547255  -98.635808  69.168975  51.044202  44.895488  19.822238  1.982108  0.583318  14.863319  1.507394  0.37356  
